<?xml version="1.0" encoding="UTF-8"?>
<svg id="Calque_1" data-name="Calque 1" xmlns="http://www.w3.org/2000/svg" viewBox="0 0 81 44">
  <defs>
    <style>
      .cls-1 {
        fill: #ea0029;
      }

      .cls-2 {
        fill: #1d1d1b;
      }
    </style>
  </defs>
  <path class="cls-2" d="M67.24,18.18c-.28-4.59-2.62-6.89-7.04-6.89-2.35,0-4.71,.57-7.06,1.71l.42,3.94c1.99-.99,3.76-1.48,5.31-1.48,1.23,0,2.11,.25,2.65,.74,.54,.49,.83,1.31,.88,2.45-1.06,.03-2.16,.16-3.28,.39-1.13,.23-2.3,.59-3.51,1.07-1.22,.48-2.21,1.2-2.97,2.14-.76,.95-1.15,2.07-1.15,3.37,0,1.79,.53,3.21,1.6,4.27,1.06,1.05,2.39,1.58,3.98,1.58,2.64,0,4.64-.75,6-2.26,.78,1.46,2.18,2.21,4.18,2.26v-13.29Zm-4.8,8.19c-.97,.93-2.08,1.4-3.33,1.4-1.75,0-2.63-.78-2.63-2.34,0-1.06,.6-1.9,1.8-2.49,1.2-.6,2.59-.93,4.16-1.01v4.44Z"/>
  <path class="cls-2" d="M76.39,27.53c-.57-.07-.95-.21-1.13-.39-.3-.31-.45-1.19-.45-2.65V15.68h4.29v-3.97h-4.29V6.91c-4.69,.82-4.83,4.79-4.83,4.79h-2.34l-.43,3.97h2.77v10.79c0,1.4,.44,2.6,1.32,3.6,.88,1,2.18,1.5,3.9,1.5h3.47l.07-.63c.11-2.48-1.81-3.25-2.34-3.41Z"/>
  <path class="cls-2" d="M41.19,11.34c-1.94,0-3.75,.55-5.29,1.49V1.96h-4.83V22.23h.03c.39,5.21,4.76,9.22,10.09,9.34,6.2,.14,10.12-4.53,10.12-10.12s-3.85-10.12-10.12-10.12Zm0,15.4c-2.92-.07-5.29-2.37-5.29-5.29s2.37-5.29,5.29-5.29c3.27,0,5.29,2.37,5.29,5.29s-2.05,5.36-5.29,5.29Z"/>
  <g>
    <path class="cls-1" d="M45.46,21.25c.07,.85-.11,1.73-.56,2.57-.79,1.48-2.49,2.53-3.88,2.35-2.02-.26-3.48-1.55-3.92-3.4-.38-1.6-.31-3.13,.95-4.29,1.69-1.56,4.66-2.24,6.6-.03,.69,.79,.81,1.72,.8,2.8Zm-4.06-3.48c-2.28,0-3.78,1.46-3.78,3.64,0,2.13,1.79,4.01,3.81,4,1.72-.01,3.57-2.17,3.58-4.16,0-1.85-1.69-3.48-3.6-3.47Z"/>
    <path class="cls-1" d="M38.53,21.44c.01-2.25,2.26-3.74,4.15-2.75,.99,.52,1.46,1.73,1.4,3.07-.08,1.72-1.87,2.95-2.88,2.87-1.5-.12-2.67-1.5-2.66-3.18Zm4.89,.1c.02-1.3-.96-2.5-2.04-2.51-1.09,0-2.36,1.29-2.37,2.43-.02,1.4,1,2.32,2.54,2.31,.82,0,1.86-1.25,1.87-2.23Z"/>
    <path class="cls-1" d="M42.62,21.56c.01,.81-.58,1.45-1.34,1.45-.77,0-1.41-.68-1.44-1.55-.03-.88,.59-1.55,1.45-1.56,.78,0,1.32,.67,1.33,1.67Zm-.5-.02c0-.62-.43-1.12-.93-1.1-.51,.02-.92,.42-.92,.89,0,.61,.51,1.16,1.07,1.13,.48-.02,.79-.38,.78-.92Z"/>
  </g>
  <path class="cls-2" d="M26.28,27.45c-2.64,2.75-6.03,4.13-10.18,4.13s-7.55-1.38-10.18-4.13c-2.64-2.75-3.95-6.35-3.95-10.79s1.32-8.03,3.95-10.78C8.55,3.12,11.94,1.74,16.09,1.74s7.55,1.38,10.18,4.13c2.64,2.75,3.95,6.35,3.95,10.78s-1.32,8.03-3.95,10.79Zm-3.47-18.48c-1.56-1.94-3.8-2.9-6.71-2.9s-5.15,.97-6.71,2.9c-1.56,1.94-2.34,4.5-2.34,7.7s.78,5.76,2.34,7.7c1.56,1.94,3.8,2.9,6.71,2.9s5.15-.97,6.71-2.9c1.56-1.94,2.34-4.5,2.34-7.7s-.78-5.76-2.34-7.7Z"/>
  <g>
    <path class="cls-1" d="M6.33,38.53c-.44-.33-.95-.44-1.51-.44-.44,0-.88,.14-.88,.48,0,.44,.43,.51,1.07,.57,1.28,.14,2.62,.66,2.62,2.14s-1.39,2.1-2.84,2.11c-1.16,0-2-.19-2.89-1.14l1.01-1.15c.64,.62,1.35,.73,1.89,.73,.6,0,1.02-.21,1.02-.57,0-.32-.37-.53-1.08-.59-1.41-.13-2.63-.49-2.63-2.1,0-1.37,1.34-1.96,2.71-1.96,.97,0,1.73,.22,2.42,.77l-.91,1.15Z"/>
    <path class="cls-1" d="M13.21,43.2h-5.17v-6.47h5.04v1.53h-3.24v.92h3.06v1.49h-3.06v.98h3.37v1.54Z"/>
    <path class="cls-1" d="M19.77,43.2h-2.01l-1.51-2.1h-.64v2.1h-1.83v-6.47h3.16c1.65,0,2.51,1.06,2.51,2.23,0,.79-.28,1.47-1.37,1.95l1.68,2.18v.11Zm-4.16-5.01v1.55h1.35c.48,0,.69-.36,.69-.75s-.23-.8-.71-.8h-1.33Z"/>
    <path class="cls-1" d="M23.64,43.23h-1.78l-2.69-6.49h2.02l.74,1.94,.81,2.39,.82-2.39,.74-1.94h2.02l-2.69,6.49Z"/>
    <path class="cls-1" d="M26.4,43.2v-6.47h1.82v6.47h-1.82Z"/>
    <path class="cls-1" d="M34.85,42.36c-.73,.72-1.62,1.01-2.6,1.01-2.54,0-3.53-1.6-3.54-3.35,0-1.66,1.11-3.43,3.54-3.43,.93,0,1.77,.32,2.5,1.03l-1.13,1.11c-.46-.44-.94-.56-1.38-.56-1.25,0-1.74,1.02-1.73,1.86,0,.84,.45,1.79,1.73,1.79,.43,0,1.06-.18,1.52-.66l1.07,1.2Z"/>
    <path class="cls-1" d="M40.31,43.2h-5.17v-6.47h5.04v1.53h-3.24v.92h3.06v1.49h-3.06v.98h3.37v1.54Z"/>
    <path class="cls-1" d="M44.86,38.53c-.44-.33-.95-.44-1.51-.44-.44,0-.88,.14-.88,.48,0,.44,.43,.51,1.07,.57,1.28,.14,2.62,.66,2.62,2.14s-1.39,2.1-2.84,2.11c-1.16,0-2-.19-2.89-1.14l1.01-1.15c.64,.62,1.35,.73,1.89,.73,.6,0,1.02-.21,1.02-.57,0-.32-.37-.53-1.08-.59-1.41-.13-2.63-.49-2.63-2.1,0-1.37,1.34-1.96,2.71-1.96,.97,0,1.73,.22,2.42,.77l-.91,1.15Z"/>
  </g>
</svg>